<svg width="1741" height="504" viewBox="0 0 1741 504" fill="none" xmlns="http://www.w3.org/2000/svg">
<g clip-path="url(#clip0_3453_21055)">
<g filter="url(#filter0_d_3453_21055)">
<path d="M468.228 425.396C468.422 424.811 468.805 424.312 469.32 423.979L576.393 354.55C578.816 352.979 577.395 349.174 574.552 349.618L569.685 350.375L447.23 370.589L389.457 327.94C385.535 325.043 380.651 323.812 375.843 324.507L374.022 324.771L371.36 326.119L369.252 328.253C368.885 328.625 368.581 329.054 368.346 329.522C366.145 333.98 366.838 339.347 370.093 343.082L404.636 382.717V389.456L251.182 451.065C250.556 451.315 249.891 451.444 249.218 451.444H206.437C200.507 451.444 195.72 446.539 195.789 440.537L196.837 350.375C196.923 342.958 191.009 336.899 183.683 336.899H98.497C91.1459 336.899 85.1866 342.934 85.1866 350.375V444.707C85.1866 447.685 82.8029 450.097 79.8624 450.097H49.2485C46.3079 450.097 43.9244 447.685 43.9244 444.707V303.414C43.9244 301.603 44.822 299.913 46.3141 298.916L184.301 206.635C187.244 204.666 190.961 204.302 194.225 205.662L227.669 219.605C231.659 221.269 234.263 225.206 234.263 229.573V314.688C234.263 326.954 244.085 336.899 256.201 336.899C256.658 336.899 257.112 336.827 257.548 336.684L534.352 246.324C538.751 244.889 541.733 240.744 541.733 236.064V226.115C541.733 222.881 540.301 219.818 537.828 217.772L455.838 149.854C454.6 148.83 453.884 147.299 453.884 145.681V13.4769C453.884 7.52278 449.117 2.69609 443.237 2.69609H356.718H355.387C349.507 2.69609 344.74 7.52278 344.74 13.4769V56.1446C344.74 57.2211 344.058 58.1771 343.049 58.5174C341.598 59.008 340.001 58.7886 338.731 57.9235L260.022 4.3625C259.71 4.15054 259.377 3.97253 259.029 3.83141L254.007 1.798C253.302 1.51208 252.508 1.54548 251.829 1.88976L247.574 4.04368L7.68383 166.848C6.20912 167.849 5.32419 169.528 5.32419 171.326V210.549C5.32419 212.709 7.7056 213.992 9.47381 212.785L248.102 49.999C251.786 47.4852 256.626 47.5521 260.241 50.1669L356.718 119.937L365.346 125.914C372.415 130.81 382.009 125.686 382.009 117.016V109.156V48.5143C382.009 45.5371 384.391 43.1239 387.332 43.1239H411.292C414.233 43.1239 416.616 45.5371 416.616 48.5143V169.893C416.616 171.535 417.355 173.089 418.626 174.111L473.936 218.655C474.724 219.289 475.181 220.253 475.181 221.271C475.181 222.72 474.26 224.004 472.897 224.451L282.982 286.777C282.45 286.949 281.895 287.038 281.34 287.038H276.604C274.266 287.038 272.083 285.855 270.787 283.887C270.406 283.305 270.201 282.624 270.201 281.923V199.815C270.201 195.503 267.662 191.605 263.748 189.906L260.884 188.664L196.599 163.976C188.501 160.868 179.416 161.94 172.242 166.853L3.8326 282.195C3.10064 282.696 2.66211 283.532 2.66211 284.427V481.092C2.66211 487.045 7.42952 491.872 13.3105 491.872H18.6346H111.807H113.261C119.094 491.872 123.841 487.121 123.909 481.218L124.996 386.633C125.063 380.731 129.811 375.979 135.643 375.979H146.549C152.376 375.979 157.122 380.723 157.196 386.623L158.374 480.844C158.386 481.884 158.697 482.901 159.268 483.766L162.342 488.436C163.238 489.798 164.521 490.851 166.02 491.457L169.421 492.834C170.05 493.088 170.721 493.22 171.399 493.22H259.986C260.581 493.22 261.171 493.121 261.732 492.921L415.713 438.81C418.915 437.683 422.331 439.836 422.743 443.246L429.008 494.891C429.86 501.92 438.591 504.521 443.068 499.083L444.568 497.262L468.228 425.396Z" fill="white" stroke="white"/>
</g>
<g filter="url(#filter1_d_3453_21055)">
<path d="M830.411 65.52V167.236C830.411 188.923 824.303 205.342 812.085 216.491C800.021 227.487 782.84 232.985 760.542 232.985C714.116 232.985 690.902 211.07 690.902 167.236V65.52H726.868V167.236C726.868 178.08 728.853 186.251 732.824 191.749C738.169 199.08 747.408 202.745 760.542 202.745C773.065 202.745 781.923 199.844 787.116 194.04C792.003 188.694 794.446 179.76 794.446 167.236V65.52H830.411ZM857.949 229.091V110.651H888.875V127.145H889.562C897.656 114.011 909.721 107.444 925.756 107.444C942.098 107.444 953.628 111.873 960.347 120.731C966.151 128.368 969.052 140.204 969.052 156.24V229.091H936.523V162.196C936.523 142.8 929.575 133.102 915.677 133.102C906.82 133.102 900.405 135.774 896.434 141.12C892.464 146.466 890.478 155.095 890.478 167.007V229.091H857.949ZM994.658 229.091V110.651H1027.19V229.091H994.658ZM1027.19 65.52V92.3237H994.658V65.52H1027.19ZM1158.41 110.651L1118.32 229.091H1082.12L1041.58 110.651H1075.71L1100.68 191.52H1101.14L1126.11 110.651H1158.41ZM1284.07 177.775H1198.62C1199.54 197.782 1209.23 207.785 1227.71 207.785C1233.97 207.785 1239.63 206.105 1244.67 202.745C1249.4 199.844 1252.29 196.408 1253.37 192.436H1282.01C1273.3 219.011 1254.81 232.298 1226.57 232.298C1208.08 232.298 1193.35 226.571 1182.36 215.116C1171.51 203.51 1166.09 188.465 1166.09 169.985C1166.09 151.964 1171.66 137.073 1182.82 125.313C1194.11 113.4 1208.7 107.444 1226.57 107.444C1245.81 107.444 1260.7 114.622 1271.24 128.978C1281.01 142.113 1285.28 158.379 1284.07 177.775ZM1198.62 157.156H1251.54C1248.48 140.356 1239.86 131.956 1225.65 131.956C1216.49 131.956 1209.46 135.011 1204.58 141.12C1200.91 145.702 1198.92 151.048 1198.62 157.156ZM1303.36 229.091V110.651H1334.28V132.644H1334.74C1337.64 125.313 1342.68 119.28 1349.86 114.545C1357.04 109.811 1364.6 107.444 1372.54 107.444C1374.98 107.444 1377.35 107.825 1379.64 108.589V138.829C1376.28 138.065 1372.39 137.684 1367.96 137.684C1346.57 137.684 1335.89 150.36 1335.89 175.713V229.091H1303.36ZM1386.66 190.604H1417.59C1417.75 197.324 1420.34 202.44 1425.38 205.953C1429.81 209.008 1435.53 210.535 1442.56 210.535C1448.21 210.535 1452.94 209.466 1456.76 207.327C1461.5 204.578 1463.86 200.607 1463.86 195.415C1463.86 190.833 1460.65 187.167 1454.24 184.418C1449.66 182.433 1440.57 179.989 1426.98 177.087C1415.38 174.644 1406.75 171.437 1401.09 167.465C1393.3 162.273 1389.41 154.942 1389.41 145.473C1389.41 120.12 1406.59 107.444 1440.95 107.444C1473.64 107.444 1491.05 120.044 1493.18 145.244H1462.26C1461.5 134.553 1454.09 129.207 1440.04 129.207C1427.98 129.207 1421.94 132.873 1421.94 140.204C1421.94 145.244 1425.76 149.138 1433.39 151.887C1434.31 152.193 1442.79 154.178 1458.82 157.844C1470.58 160.593 1479.21 163.952 1484.71 167.924C1492.5 173.422 1496.39 181.134 1496.39 191.062C1496.39 205.418 1490.74 216.185 1479.44 223.364C1470.13 229.32 1457.76 232.298 1442.33 232.298C1426.91 232.298 1414.38 229.243 1404.76 223.135C1393.3 215.956 1387.28 205.113 1386.66 190.604Z" fill="white"/>
</g>
<g filter="url(#filter2_d_3453_21055)">
<path d="M821.935 294.611L767.643 458.182H727.097L673.95 294.611H711.061L747.485 409.614H747.943L784.824 294.611H821.935ZM906.21 412.364V400.222C903.613 402.513 897.963 404.269 889.258 405.491C879.331 407.018 872.764 408.469 869.557 409.844C863.143 412.745 859.936 417.633 859.936 424.505C859.936 434.585 866.579 439.625 879.866 439.625C897.428 439.625 906.21 430.538 906.21 412.364ZM863.601 376.167H831.072C831.988 362.116 838.173 351.731 849.627 345.011C859.095 339.36 871.466 336.534 886.738 336.534C921.405 336.534 938.739 347.76 938.739 370.211V431.836C938.739 444.971 940.114 453.752 942.863 458.182H909.875C908.501 453.906 907.737 450.087 907.584 446.727C898.268 456.501 884.981 461.389 867.725 461.389C855.813 461.389 846.267 458.488 839.09 452.684C831.301 446.421 827.407 437.487 827.407 425.88C827.407 413.815 831.606 404.804 840.006 398.847C846.114 394.724 855.354 391.745 867.725 389.913C885.287 387.469 894.221 386.17 894.527 386.018C902.316 384.033 906.21 380.139 906.21 374.334C906.21 367.92 904.071 363.49 899.796 361.047C896.741 359.214 891.854 358.298 885.135 358.298C871.848 358.298 864.67 364.254 863.601 376.167ZM1076.46 381.436H1044.62C1042.49 367.843 1034.47 361.047 1020.57 361.047C1011.1 361.047 1003.85 365.248 998.807 373.647C994.837 380.672 992.851 389.302 992.851 399.534C992.851 409.462 994.837 417.785 998.807 424.505C1003.54 432.753 1010.57 436.876 1019.88 436.876C1034.85 436.876 1043.48 428.858 1045.77 412.822H1077.15C1075.17 428.4 1069.06 440.389 1058.83 448.789C1048.75 457.189 1035.84 461.389 1020.11 461.389C1002.4 461.389 987.965 455.738 976.815 444.436C965.82 433.134 960.322 418.549 960.322 400.68C960.322 381.742 965.591 366.469 976.128 354.862C987.124 342.643 1002.01 336.534 1020.8 336.534C1035.77 336.534 1048.29 340.2 1058.37 347.531C1069.52 355.778 1075.55 367.08 1076.46 381.436ZM1169.29 412.364V400.222C1166.7 402.513 1161.04 404.269 1152.34 405.491C1142.41 407.018 1135.85 408.469 1132.64 409.844C1126.23 412.745 1123.02 417.633 1123.02 424.505C1123.02 434.585 1129.66 439.625 1142.95 439.625C1160.51 439.625 1169.29 430.538 1169.29 412.364ZM1126.68 376.167H1094.15C1095.07 362.116 1101.26 351.731 1112.71 345.011C1122.18 339.36 1134.55 336.534 1149.82 336.534C1184.49 336.534 1201.82 347.76 1201.82 370.211V431.836C1201.82 444.971 1203.19 453.752 1205.94 458.182H1172.95C1171.58 453.906 1170.82 450.087 1170.66 446.727C1161.35 456.501 1148.06 461.389 1130.81 461.389C1118.89 461.389 1109.35 458.488 1102.17 452.684C1094.38 446.421 1090.49 437.487 1090.49 425.88C1090.49 413.815 1094.69 404.804 1103.09 398.847C1109.2 394.724 1118.44 391.745 1130.81 389.913C1148.37 387.469 1157.31 386.17 1157.6 386.018C1165.39 384.033 1169.29 380.139 1169.29 374.334C1169.29 367.92 1167.16 363.49 1162.87 361.047C1159.83 359.214 1154.94 358.298 1148.21 358.298C1134.93 358.298 1127.75 364.254 1126.68 376.167ZM1227.07 458.182V339.742H1258V356.236H1258.69C1266.77 343.101 1278.84 336.534 1294.88 336.534C1311.21 336.534 1322.75 340.964 1329.47 349.822C1335.27 357.459 1338.18 369.294 1338.18 385.331V458.182H1305.65V391.287C1305.65 371.891 1298.69 362.193 1284.8 362.193C1275.94 362.193 1269.52 364.865 1265.56 370.211C1261.58 375.557 1259.6 384.185 1259.6 396.098V458.182H1227.07ZM1475.34 381.436H1443.5C1441.36 367.843 1433.35 361.047 1419.44 361.047C1409.98 361.047 1402.72 365.248 1397.68 373.647C1393.72 380.672 1391.72 389.302 1391.72 399.534C1391.72 409.462 1393.72 417.785 1397.68 424.505C1402.42 432.753 1409.44 436.876 1418.75 436.876C1433.72 436.876 1442.35 428.858 1444.64 412.822H1476.02C1474.04 428.4 1467.94 440.389 1457.7 448.789C1447.62 457.189 1434.72 461.389 1418.98 461.389C1401.28 461.389 1386.84 455.738 1375.69 444.436C1364.69 433.134 1359.19 418.549 1359.19 400.68C1359.19 381.742 1364.46 366.469 1375 354.862C1386 342.643 1400.89 336.534 1419.67 336.534C1434.64 336.534 1447.16 340.2 1457.24 347.531C1468.4 355.778 1474.42 367.08 1475.34 381.436ZM1606.66 406.865H1521.21C1522.13 426.873 1531.82 436.876 1550.3 436.876C1556.56 436.876 1562.22 435.196 1567.26 431.836C1571.99 428.935 1574.88 425.498 1575.96 421.527H1604.6C1595.89 448.102 1577.4 461.389 1549.16 461.389C1530.67 461.389 1515.94 455.662 1504.95 444.207C1494.1 432.6 1488.68 417.556 1488.68 399.076C1488.68 381.055 1494.25 366.164 1505.4 354.404C1516.7 342.491 1531.29 336.534 1549.16 336.534C1568.4 336.534 1583.29 343.713 1593.83 358.069C1603.6 371.204 1607.87 387.469 1606.66 406.865ZM1521.21 386.247H1574.13C1571.07 369.447 1562.44 361.047 1548.24 361.047C1539.08 361.047 1532.05 364.102 1527.17 370.211C1523.5 374.793 1521.51 380.139 1521.21 386.247ZM1620.22 419.694H1651.14C1651.29 426.415 1653.89 431.53 1658.93 435.044C1663.37 438.098 1669.09 439.625 1676.11 439.625C1681.76 439.625 1686.5 438.557 1690.32 436.418C1695.05 433.669 1697.42 429.698 1697.42 424.505C1697.42 419.924 1694.21 416.258 1687.8 413.509C1683.21 411.524 1674.13 409.08 1660.54 406.178C1648.93 403.735 1640.3 400.528 1634.65 396.556C1626.86 391.364 1622.97 384.033 1622.97 374.564C1622.97 349.211 1640.15 336.534 1674.51 336.534C1707.19 336.534 1724.6 349.134 1726.74 374.334H1695.81C1695.05 363.644 1687.65 358.298 1673.59 358.298C1661.53 358.298 1655.5 361.964 1655.5 369.295C1655.5 374.335 1659.31 378.229 1666.95 380.978C1667.87 381.284 1676.34 383.269 1692.38 386.934C1704.14 389.684 1712.77 393.043 1718.26 397.014C1726.05 402.513 1729.95 410.225 1729.95 420.153C1729.95 434.509 1724.3 445.276 1712.99 452.454C1703.68 458.411 1691.31 461.389 1675.88 461.389C1660.46 461.389 1647.94 458.334 1638.32 452.225C1626.86 445.047 1620.83 434.204 1620.22 419.694Z" fill="white"/>
</g>
</g>
<defs>
<filter id="filter0_d_3453_21055" x="0.162109" y="1.10522" width="579.965" height="505.397" filterUnits="userSpaceOnUse" color-interpolation-filters="sRGB">
<feFlood flood-opacity="0" result="BackgroundImageFix"/>
<feColorMatrix in="SourceAlpha" type="matrix" values="0 0 0 0 0 0 0 0 0 0 0 0 0 0 0 0 0 0 127 0" result="hardAlpha"/>
<feOffset dy="2"/>
<feGaussianBlur stdDeviation="1"/>
<feComposite in2="hardAlpha" operator="out"/>
<feColorMatrix type="matrix" values="0 0 0 0 0 0 0 0 0 0 0 0 0 0 0 0 0 0 0.2 0"/>
<feBlend mode="normal" in2="BackgroundImageFix" result="effect1_dropShadow_3453_21055"/>
<feBlend mode="normal" in="SourceGraphic" in2="effect1_dropShadow_3453_21055" result="shape"/>
</filter>
<filter id="filter1_d_3453_21055" x="688.902" y="65.52" width="809.487" height="171.465" filterUnits="userSpaceOnUse" color-interpolation-filters="sRGB">
<feFlood flood-opacity="0" result="BackgroundImageFix"/>
<feColorMatrix in="SourceAlpha" type="matrix" values="0 0 0 0 0 0 0 0 0 0 0 0 0 0 0 0 0 0 127 0" result="hardAlpha"/>
<feOffset dy="2"/>
<feGaussianBlur stdDeviation="1"/>
<feComposite in2="hardAlpha" operator="out"/>
<feColorMatrix type="matrix" values="0 0 0 0 0 0 0 0 0 0 0 0 0 0 0 0 0 0 0.2 0"/>
<feBlend mode="normal" in2="BackgroundImageFix" result="effect1_dropShadow_3453_21055"/>
<feBlend mode="normal" in="SourceGraphic" in2="effect1_dropShadow_3453_21055" result="shape"/>
</filter>
<filter id="filter2_d_3453_21055" x="671.95" y="294.611" width="1060" height="170.778" filterUnits="userSpaceOnUse" color-interpolation-filters="sRGB">
<feFlood flood-opacity="0" result="BackgroundImageFix"/>
<feColorMatrix in="SourceAlpha" type="matrix" values="0 0 0 0 0 0 0 0 0 0 0 0 0 0 0 0 0 0 127 0" result="hardAlpha"/>
<feOffset dy="2"/>
<feGaussianBlur stdDeviation="1"/>
<feComposite in2="hardAlpha" operator="out"/>
<feColorMatrix type="matrix" values="0 0 0 0 0 0 0 0 0 0 0 0 0 0 0 0 0 0 0.2 0"/>
<feBlend mode="normal" in2="BackgroundImageFix" result="effect1_dropShadow_3453_21055"/>
<feBlend mode="normal" in="SourceGraphic" in2="effect1_dropShadow_3453_21055" result="shape"/>
</filter>
<clipPath id="clip0_3453_21055">
<rect width="1741" height="504" fill="white"/>
</clipPath>
</defs>
</svg>
